<?xml version="1.0" encoding="UTF-8" standalone="no"?>
<!-- Created with Inkscape (http://www.inkscape.org/) -->

<svg
   xmlns:svg="http://www.w3.org/2000/svg"
   xmlns="http://www.w3.org/2000/svg"
   version="1.1"
   width="55.125"
   height="55"
   viewBox="0 0 55.125 55"
   id="Layer_1"
   xml:space="preserve"><defs
   id="defs25">
	
	
	
	
	
	
	
	
	
</defs>
<g
   transform="matrix(1,0,0,-1,-1.990555,54.476587)"
   id="g3745"><polygon
     points="20.555,2.531 26.891,12.363 17.238,16.369 14.659,4.975 "
     transform="matrix(0.6,0,0,0.59961625,13.057255,18.114123)"
     id="polygon5"
     style="fill:#ffffff" /><polygon
     points="52.477,20.55 42.646,26.88 38.649,17.228 50.04,14.654 "
     transform="matrix(0.6,0,0,0.59961625,13.057255,18.114123)"
     id="polygon7"
     style="fill:#ffffff" /><polygon
     points="34.453,52.471 28.117,42.645 37.775,38.645 40.349,50.029 "
     transform="matrix(0.6,0,0,0.59961625,13.057255,18.114123)"
     id="polygon9"
     style="fill:#ffffff" /><polygon
     points="40.295,4.882 37.824,16.315 28.171,12.309 34.394,2.439 "
     transform="matrix(0.6,0,0,0.59961625,13.057255,18.114123)"
     id="polygon11"
     style="fill:#ffffff" /><polygon
     points="50.055,40.258 38.628,37.791 42.623,28.139 52.493,34.365 "
     transform="matrix(0.6,0,0,0.59961625,13.057255,18.114123)"
     id="polygon13"
     style="fill:#ffffff" /><polygon
     points="4.953,40.234 16.385,37.76 12.391,28.105 2.515,34.34 "
     transform="matrix(0.6,0,0,0.59961625,13.057255,18.114123)"
     id="polygon15"
     style="fill:#ffffff" /><polygon
     points="2.493,20.539 12.319,26.875 16.32,17.216 4.936,14.643 "
     transform="matrix(0.6,0,0,0.59961625,13.057255,18.114123)"
     id="polygon17"
     style="fill:#ffffff" /><polygon
     points="20.609,52.461 26.939,42.623 17.287,38.629 14.719,50.018 "
     transform="matrix(0.6,0,0,0.59961625,13.057255,18.114123)"
     id="polygon19"
     style="fill:#ffffff" /><path
     d="m 37.012255,31.516745 c 1.707,4.115167 -0.2472,8.831149 -4.3644,10.537656 -4.1202,1.708907 -8.8404,-0.250639 -10.5468,-4.365806 -1.704,-4.114566 0.2508,-8.834146 4.3674,-10.536456 4.1172,-1.705908 8.8404,0.25004 10.5438,4.364606 z"
     id="path21"
     style="fill:none;stroke:#ffffff;stroke-width:8;stroke-miterlimit:4;stroke-dasharray:none" /></g>
<g
   transform="matrix(1,0,0,-1,0,55.517202)"
   id="g3760"><rect
     width="10.1"
     height="36"
     x="6.5172024"
     y="9.5625"
     transform="matrix(0,1,1,0,0,0)"
     id="rect2398"
     style="fill:none;stroke:#ffffff;stroke-width:2;stroke-opacity:1" /><line
     id="line2400"
     style="fill:#aaaaaa;stroke:#ffffff;stroke-width:2;stroke-opacity:1"
     x2="18.5625"
     x1="18.5625"
     y2="16.617199"
     y1="12.6172" /><line
     id="line2402"
     style="fill:#aaaaaa;stroke:#ffffff;stroke-width:2;stroke-opacity:1"
     x2="31.5625"
     x1="31.5625"
     y2="16.617199"
     y1="12.6172" /><line
     id="line2404"
     style="fill:#aaaaaa;stroke:#ffffff;stroke-width:2;stroke-opacity:1"
     x2="38.5625"
     x1="38.5625"
     y2="16.617199"
     y1="12.6172" /></g></svg>